 <!-- width="20px" height="20px" viewBox="0 0 32 32" -->
<svg viewBox="0 0 32 32" fill="none" preserveAspectRatio="none" xmlns="http://www.w3.org/2000/svg">
  <symbol id="check" viewBox="0 0 32 32">
    <path fill="currentColor" d="M16 0c-8.836 0-16 7.163-16 16s7.163 16 16 16c8.837 0 16-7.163 16-16s-7.163-16-16-16zM16 30.032c-7.72 0-14-6.312-14-14.032s6.28-14 14-14 14 6.28 14 14-6.28 14.032-14 14.032zM22.386 10.146l-9.388 9.446-4.228-4.227c-0.39-0.39-1.024-0.39-1.415 0s-0.391 1.023 0 1.414l4.95 4.95c0.39 0.39 1.024 0.39 1.415 0 0.045-0.045 0.084-0.094 0.119-0.145l9.962-10.024c0.39-0.39 0.39-1.024 0-1.415s-1.024-0.39-1.415 0z"></path>
  </symbol>
  <symbol id="edit">
    <path fill="currentColor" d="M12 25l3 3 15-15-3-3-15 15zM11 26l3 3-4 1z"/></svg>
  </symbol>
  <symbol id="delete">
    <path fill="currentColor" d="M6 19c0 1.1.9 2 2 2h8c1.1 0 2-.9 2-2V7H6v12zM19 4h-3.5l-1-1h-5l-1 1H5v2h14V4z"/>
  </symbol>
  <symbol id="cancel" viewBox="0 0 32 32">
    <path fill="currentColor" d="M16 29c-7.18 0-13-5.82-13-13s5.82-13 13-13 13 5.82 13 13-5.82 13-13 13zM16 6c-5.522 0-10 4.478-10 10s4.478 10 10 10c5.523 0 10-4.478 10-10s-4.477-10-10-10zM20.537 19.535l-1.014 1.014c-0.186 0.186-0.488 0.186-0.675 0l-2.87-2.87-2.87 2.87c-0.187 0.186-0.488 0.186-0.675 0l-1.014-1.014c-0.186-0.186-0.186-0.488 0-0.675l2.871-2.869-2.871-2.87c-0.186-0.187-0.186-0.489 0-0.676l1.014-1.013c0.187-0.187 0.488-0.187 0.675 0l2.87 2.87 2.87-2.87c0.187-0.187 0.489-0.187 0.675 0l1.014 1.013c0.186 0.187 0.186 0.489 0 0.676l-2.871 2.87 2.871 2.869c0.186 0.187 0.186 0.49 0 0.675z"></path>
  </symbol>
</svg>
